PathFileType	4	(X/Y/Z)	C:/Users/opensim2020/Desktop/walking_exp_matlab/subject02_walking10_straight_01.trc	
DataRate	CameraRate	NumFrames	NumMarkers	Units	OrigDataRate	OrigDataStartFrame	OrigNumFrames	
100.00	100.00	7	43	mm	100.00	613	328	
Frame#	Time	LFHD			RFHD			LBHD			RBHD			C7			T10			CLAV			STRN			RBAK			LSHO			LUPA			LELB			LFRM			LWRA			LWRB			LFIN			RSHO			RUPA			RELB			RFRM			RWRA			RWRB			RFIN			LASI			RASI			LPSI			RPSI			LTHI			LKNE			LTIB			LANK			LHEE			LTOE			RTHI			RKNE			RTIB			RANK			RHEE			RTOE			*39			*40			*41			*42			
		X1	Y1	Z1	X2	Y2	Z2	X3	Y3	Z3	X4	Y4	Z4	X5	Y5	Z5	X6	Y6	Z6	X7	Y7	Z7	X8	Y8	Z8	X9	Y9	Z9	X10	Y10	Z10	X11	Y11	Z11	X12	Y12	Z12	X13	Y13	Z13	X14	Y14	Z14	X15	Y15	Z15	X16	Y16	Z16	X17	Y17	Z17	X18	Y18	Z18	X19	Y19	Z19	X20	Y20	Z20	X21	Y21	Z21	X22	Y22	Z22	X23	Y23	Z23	X24	Y24	Z24	X25	Y25	Z25	X26	Y26	Z26	X27	Y27	Z27	X28	Y28	Z28	X29	Y29	Z29	X30	Y30	Z30	X31	Y31	Z31	X32	Y32	Z32	X33	Y33	Z33	X34	Y34	Z34	X35	Y35	Z35	X36	Y36	Z36	X37	Y37	Z37	X38	Y38	Z38	X39	Y39	Z39	X40	Y40	Z40	X41	Y41	Z41	X42	Y42	Z42	X43	Y43	Z43	

165	1.640	1333.94177	-337.87854	1756.00415	1477.38770	-326.45825	1741.25134	1330.89441	-431.14243	1638.02222	1472.86975	-431.54074	1617.55774	1397.33606	-450.05774	1521.72205	1396.36121	-514.99628	1252.77515	1390.46606	-313.07993	1452.83398	1398.44751	-269.59454	1275.36450	1457.68420	-516.35632	1354.20459	1219.34766	-364.57730	1498.44507	1122.82996	-346.61072	1303.29102	1099.13965	-318.92343	1165.92102	1087.52356	-273.28519	1041.64795	1130.76013	-196.17267	933.68597	1087.17981	-231.39883	926.42719	1086.36707	-193.43687	872.12720	1586.15955	-373.85172	1483.90161	1666.47290	-405.79025	1291.16931	1684.94629	-388.99942	1144.99915	1700.80371	-347.07657	1031.15186	1676.05286	-284.25165	912.08728	1709.59875	-328.97775	902.19708	1709.59094	-283.47916	845.48920	1268.75098	-292.14621	984.97253	1524.12988	-300.81509	973.11383	1344.32141	-502.67514	1032.13367	1457.98792	-511.15253	1029.17273	1220.92236	-376.05661	674.23792	1252.03723	-423.72122	474.69620	1255.32666	-494.90573	291.93411	1295.06165	-507.89264	69.13965	1346.33582	-544.16681	40.80452	1276.68188	-352.60431	32.63237	1612.46851	-317.70718	678.64807	1593.11597	-242.47467	484.61111	1609.74475	-267.55109	300.37601	1590.18042	-264.30893	105.39385	1534.77209	-283.43576	41.53866	1623.33081	-114.06225	67.73615	1427.10413	-453.48300	1779.80786	-3360.43457	2845.18921	1034.05933						 
166	1.650	1335.70728	-330.13382	1755.29871	1479.11621	-318.84329	1740.33899	1332.40955	-423.74066	1637.51465	1474.41846	-424.26141	1616.88293	1398.59119	-442.87061	1521.08765	1397.18005	-507.98520	1252.18896	1391.72864	-305.85800	1452.11694	1399.37598	-262.62302	1274.61389	1458.52271	-509.38348	1353.55432	1220.59814	-357.17593	1498.13635	1124.05115	-338.85599	1303.31604	1099.73303	-310.88223	1166.12219	1088.06567	-264.56802	1042.10571	1131.49597	-186.47945	934.60370	1088.00146	-221.63493	926.96674	1087.10242	-183.26634	873.16455	1587.38818	-366.81818	1482.76721	1667.39307	-399.34625	1290.06665	1685.57874	-383.10910	1143.81189	1701.62927	-341.91531	1029.81091	1677.00684	-279.51611	910.50897	1710.44763	-324.49924	900.71576	1710.57202	-279.19229	843.61365	1269.20349	-285.71994	984.17340	1524.41296	-293.89441	972.41382	1345.14368	-495.98013	1031.62134	1458.85437	-504.13416	1028.61023	1221.64868	-371.41690	673.66339	1252.53027	-420.76505	474.39005	1255.63696	-493.22678	292.07224	1295.21423	-507.61139	69.32476	1346.50085	-543.99890	41.04913	1276.63025	-352.30112	32.51382	1612.94238	-310.80023	678.03217	1593.01721	-234.01874	484.15982	1611.85889	-252.08139	299.54004	1593.65479	-242.55000	104.43338	1539.27405	-260.81265	39.53643	1623.50562	-90.16331	71.93235	1428.92151	-445.89679	1779.26392	-3357.34668	2845.72510	1034.38550						 
167	1.660	1337.61719	-322.57437	1754.66431	1480.93872	-311.26227	1739.39063	1334.11560	-416.31583	1637.03064	1476.04834	-416.85645	1616.13269	1399.93420	-435.58530	1520.38745	1398.17859	-500.95361	1251.60425	1393.05896	-298.65369	1451.34839	1400.41150	-255.45641	1273.82739	1459.68933	-502.31339	1353.10986	1221.96375	-349.82498	1497.81921	1125.23315	-331.06653	1303.01746	1100.35388	-303.06323	1166.06165	1088.94885	-255.66115	1042.10474	1132.42188	-176.97881	935.41467	1088.89917	-212.28143	927.45898	1087.94592	-173.30925	874.02338	1588.92017	-359.68008	1481.61108	1668.38953	-392.77634	1288.92383	1686.29541	-377.13220	1142.61084	1702.71631	-336.45709	1028.53564	1678.06689	-274.98395	908.70605	1711.36804	-319.90860	899.21155	1711.53320	-275.09708	841.67419	1269.60657	-279.16568	983.41107	1524.75037	-286.81781	971.70728	1346.05286	-489.15112	1031.04565	1459.86829	-497.13760	1027.98364	1222.32959	-366.98358	673.08649	1253.03857	-417.49686	474.03864	1256.00208	-491.69681	292.38394	1295.32959	-507.30856	69.43359	1346.66479	-543.72351	41.27142	1276.70251	-352.19083	32.27607	1613.50586	-303.86899	677.36493	1593.00342	-225.83542	483.75943	1613.88757	-237.03705	298.87628	1597.08093	-221.33717	103.95528	1543.57300	-238.63417	38.23062	1623.42578	-67.05440	76.51683	1430.80969	-438.24066	1778.65747	-3360.36670	2845.32397	1034.00598						 
168	1.670	1339.54370	-314.91666	1753.97192	1482.89673	-303.65524	1738.40894	1335.83228	-408.85178	1636.51770	1477.78015	-409.50702	1615.38574	1401.43872	-428.39795	1519.71960	1399.26501	-493.77893	1250.94324	1394.49609	-291.37540	1450.57849	1401.42651	-248.27100	1273.04517	1460.45581	-495.18439	1352.04907	1223.40918	-342.44861	1497.47632	1126.36475	-323.38904	1302.93164	1101.95874	-294.89322	1165.76208	1090.10242	-246.80948	1042.30627	1133.43372	-167.73534	936.07648	1090.07654	-202.91995	927.82697	1088.85754	-163.87349	874.72937	1590.29028	-352.63721	1480.50037	1669.47620	-386.16226	1287.71338	1687.12549	-371.06860	1141.35266	1703.77344	-331.17709	1027.14612	1679.26794	-269.96069	906.94025	1712.41309	-315.27655	897.67883	1712.77527	-270.78391	839.96674	1269.65076	-272.54361	982.44220	1525.08325	-279.64655	970.92926	1347.15259	-482.29871	1030.43018	1460.91211	-489.89215	1027.31201	1223.05676	-362.30908	672.44867	1253.84436	-414.32358	473.67130	1256.49341	-489.67535	292.53635	1295.54675	-506.95731	69.68811	1346.89636	-543.52271	41.75222	1276.65771	-352.08090	32.23906	1614.03613	-296.99033	676.56525	1593.12708	-217.88217	483.39859	1615.92285	-222.34859	298.49554	1599.97241	-200.67691	103.85830	1547.28125	-217.11745	37.14981	1623.41406	-44.88240	81.39091	1432.80530	-430.53836	1777.99768	-3357.39551	2845.95532	1034.28699						 
169	1.680	1341.59473	-307.32916	1753.22412	1484.92700	-296.03619	1737.39868	1337.69702	-401.48947	1635.97314	1479.62805	-402.09952	1614.59155	1402.96741	-421.09579	1518.93347	1400.43726	-486.55270	1250.16895	1395.99805	-284.09885	1449.73120	1402.47388	-241.16376	1272.24316	1461.90210	-488.10843	1351.49426	1224.94116	-335.19354	1497.24341	1127.63086	-316.44458	1302.63391	1102.67664	-287.43552	1165.75122	1091.08374	-238.87312	1042.47961	1134.54553	-158.71307	936.60303	1091.37622	-193.90958	928.17334	1090.05261	-154.43178	875.25153	1591.77002	-345.74680	1479.21216	1670.61719	-379.53345	1286.48889	1688.10803	-364.97873	1140.07690	1704.83972	-325.67334	1025.63013	1680.65735	-264.97470	905.12848	1713.59778	-310.47781	896.14111	1714.02002	-266.42709	838.09534	1269.81396	-266.08502	981.31439	1525.54236	-272.19519	970.21387	1348.38379	-475.27182	1029.66638	1462.20422	-482.68271	1026.62854	1223.76123	-357.62936	671.71027	1254.63147	-410.93518	473.31564	1256.96155	-487.81992	292.88010	1295.79370	-506.67145	70.08076	1347.12231	-543.41711	42.19846	1276.65515	-351.95227	32.26788	1614.66748	-290.03073	675.71100	1593.13232	-210.18742	482.65884	1617.64038	-208.44058	298.21692	1602.66895	-180.73630	104.09113	1551.09924	-196.49290	36.91342	1623.19080	-23.75821	86.23898	1434.93127	-422.86746	1777.35522	-3360.31152	2845.07617	1034.26709						 
170	1.690	1343.79504	-299.59558	1752.44312	1487.08362	-288.38272	1736.37976	1339.70105	-393.96115	1635.36768	1481.28564	-394.92255	1613.71448	1404.62744	-413.78940	1518.08350	1401.80029	-479.21945	1249.34827	1397.62476	-276.70010	1448.91516	1403.66553	-233.85121	1271.39990	1463.15454	-480.85754	1350.49683	1226.60352	-327.89941	1496.98743	1129.04639	-309.24539	1302.25000	1104.31177	-279.46887	1165.50708	1092.69189	-230.31323	1042.21509	1135.90381	-149.91087	937.15100	1092.81653	-185.34689	928.17340	1091.25488	-145.62250	875.61407	1593.55969	-338.54633	1477.95715	1671.64783	-373.05472	1284.99243	1689.14307	-358.84229	1138.75037	1705.98914	-320.08270	1024.11145	1682.07129	-259.94891	903.29022	1714.88928	-305.63315	894.54645	1715.23560	-262.10532	836.09308	1270.20483	-259.37894	980.27301	1526.62085	-263.36697	970.37964	1349.72107	-468.15039	1028.83362	1463.53857	-475.17883	1025.81372	1224.71826	-352.77002	671.02148	1255.45251	-407.36209	472.90515	1257.56738	-485.82703	293.16962	1296.10657	-506.26816	70.35728	1347.47083	-543.08215	42.60595	1276.54260	-351.78497	32.06152	1615.50330	-283.06427	674.82422	1593.94641	-202.20432	482.65009	1618.97302	-194.94742	297.91693	1605.17407	-161.41393	104.71593	1553.88599	-176.21062	36.46091	1622.68762	-3.81471	90.80183	1437.15942	-415.13339	1776.64514	-3360.36377	2845.14893	1034.26160						 
171	1.700	1346.06531	-291.91702	1751.62830	1489.29895	-280.73288	1735.32825	1341.78491	-386.65253	1634.80310	1483.60547	-387.25140	1612.88770	1406.39001	-406.49710	1517.23926	1403.25000	-471.84003	1248.49207	1399.32202	-269.36209	1448.07275	1404.98450	-226.35741	1270.59961	1464.49377	-473.61545	1349.44604	1228.30457	-320.42239	1496.56458	1130.82495	-301.44852	1301.79614	1105.62976	-272.09189	1165.10596	1093.95911	-222.86716	1042.04382	1137.22546	-141.35384	937.31525	1094.35071	-177.02733	928.06830	1092.71790	-136.90707	875.79651	1595.12341	-331.72769	1476.59827	1672.91479	-366.42142	1283.62244	1690.32104	-352.58447	1137.38721	1707.13440	-314.71173	1022.52191	1683.55884	-254.89429	901.32880	1716.28235	-300.61261	892.95911	1716.70654	-257.41742	834.19019	1270.53003	-252.45905	979.21362	1527.32434	-255.45094	969.72626	1351.26453	-460.97720	1027.94348	1465.01050	-467.68420	1024.97571	1225.66406	-348.21344	670.49091	1256.74573	-404.15372	472.59094	1258.31152	-483.93292	293.59109	1296.41455	-505.94925	70.84357	1347.88843	-542.83789	43.18796	1276.41199	-351.62509	31.85953	1616.39087	-276.07571	673.95337	1594.21289	-194.57323	481.79837	1620.61707	-182.14008	297.81952	1607.06836	-143.21771	105.24834	1556.31763	-156.65526	36.44030	1622.65942	15.27590	95.40751	1439.48547	-407.35989	1775.87109	-3357.52808	2845.71387	1034.35388						 
